Coordinates
version=1
nRows=30
nColumns=33
inDegrees=yes

Units are S.I. units (second, meters, Newtons, ...)
Angles are in degrees.

endheader
time	ground_thorax_rot_x	ground_thorax_rot_y	ground_thorax_rot_z	ground_thorax_tx	ground_thorax_ty	ground_thorax_tz	clav_prot_r	clav_elev_r	scapula_abduction_r	scapula_elevation_r	scapula_upward_rot_r	scapula_winging_r	shoulder_elv_r	plane_of_elev_r	axial_rot_r	elbow_flexion_r	pro_sup_r	wrist_flex_r	wrist_dev_r	clav_prot_l	clav_elev_l	scapula_abduction_l	scapula_elevation_l	scapula_upward_rot_l	scapula_winging_l	shoulder_elv_l	plane_of_elev_l	axial_rot_l	elbow_flexion_l	pro_sup_l	wrist_flex_l	wrist_dev_l	
2.6300	2.035610	4.169683	12.950773	-0.123173	1.035068	0.029668	2.978174	12.070992	15.527302	7.672133	23.352688	-9.823555	16.237079	-75.490103	56.712736	58.289288	-20.178882	69.999664	-25.000000	12.432847	-4.444344	-18.889785	-21.229248	-43.432816	0.494049	60.708443	-38.024119	-2.860442	70.063711	20.052943	-0.845587	-24.999997	
2.6400	1.916863	4.283653	13.038635	-0.123605	1.034853	0.029785	2.862233	11.743364	15.216422	7.478754	23.105010	-9.689855	16.512833	-75.473775	56.313750	58.461966	-19.663123	69.999398	-25.000000	12.413366	-4.583949	-18.957473	-21.240283	-43.752059	0.484320	61.244800	-37.906673	-2.956601	70.065653	20.176980	-0.836430	-24.999996	
2.6500	1.794799	4.401679	13.121485	-0.124002	1.034668	0.029934	2.734771	11.402185	14.875916	7.279124	22.842555	-9.545326	16.815704	-75.453462	55.883141	58.660055	-19.119913	69.998922	-25.000000	12.391593	-4.733605	-19.026532	-21.249446	-44.088028	0.472779	61.814158	-37.773132	-3.040795	70.058185	20.307657	-0.827797	-24.999992	
2.6600	1.730963	4.469500	13.206629	-0.124339	1.034380	0.030044	2.633135	11.212687	14.644239	7.162227	22.716799	-9.455950	17.037249	-75.396231	55.593739	58.844025	-18.807859	69.998069	-25.000000	12.367905	-4.841250	-19.044647	-21.232136	-44.275019	0.459353	62.144817	-37.635278	-3.025120	70.025871	20.382019	-0.827801	-24.999986	
2.6700	1.698242	4.513241	13.281851	-0.124622	1.034048	0.030142	2.546420	11.102915	14.470163	7.089679	22.660281	-9.395266	17.228185	-75.314121	55.372901	59.034358	-18.620380	69.996540	-25.000000	12.347846	-4.928637	-19.042323	-21.196502	-44.378243	0.448885	62.356754	-37.486001	-2.953675	69.991368	20.423686	-0.830478	-24.999975	
2.6800	1.690482	4.537951	13.345129	-0.124845	1.033691	0.030236	2.473215	11.059461	14.342884	7.055357	22.657404	-9.357500	17.402524	-75.210719	55.209242	59.236793	-18.536649	69.993806	-25.000000	12.334817	-4.999595	-19.030009	-21.145192	-44.412237	0.444103	62.472265	-37.325589	-2.834391	69.960387	20.434800	-0.831377	-24.999955	
2.6900	1.692247	4.559088	13.386584	-0.125019	1.033337	0.030330	2.412196	11.045113	14.240328	7.040837	22.668906	-9.329773	17.591581	-75.094843	55.070299	59.467602	-18.503414	69.988896	-25.000000	12.336949	-5.065022	-19.033874	-21.083887	-44.413914	0.451952	62.552599	-37.154307	-2.696813	69.959085	20.422724	-0.821988	-24.999920	
2.7000	1.690978	4.588695	13.406225	-0.125145	1.033026	0.030442	2.356674	11.026838	14.129240	7.031284	22.655998	-9.295982	17.831411	-74.972006	54.932692	59.741774	-18.467969	69.980133	-25.000000	12.360696	-5.135557	-19.077357	-21.019266	-44.421709	0.477676	62.643806	-36.969833	-2.552040	69.990115	20.391378	-0.788704	-24.999857	
2.7100	1.683311	4.627772	13.417207	-0.125233	1.032768	0.030561	2.312269	11.003649	14.018141	7.026754	22.615682	-9.258087	18.119263	-74.848048	54.815926	60.046949	-18.429553	69.964345	-25.000000	12.412341	-5.207487	-19.172653	-20.955896	-44.438735	0.526116	62.737424	-36.782902	-2.409493	70.059377	20.333927	-0.721159	-24.999745	
2.7200	1.663990	4.688747	13.431323	-0.125305	1.032568	0.030695	2.277963	10.961192	13.871967	7.030784	22.502436	-9.198981	18.530483	-74.711972	54.748862	60.420111	-18.365367	69.936318	-25.000000	12.518957	-5.288464	-19.376351	-20.897774	-44.493773	0.619357	62.820731	-36.581569	-2.243582	70.168458	20.218713	-0.569737	-24.999543	
2.7300	1.635589	4.766689	13.446629	-0.125357	1.032432	0.030844	2.251808	10.905569	13.704196	7.040530	22.339574	-9.126073	19.038120	-74.567420	54.727364	60.856358	-18.281344	69.885407	-25.000000	12.672520	-5.377108	-19.671782	-20.843129	-44.578797	0.750903	62.895619	-36.365600	-2.059037	70.313638	20.051581	-0.343217	-24.999181	
2.7400	1.602158	4.857980	13.451861	-0.125388	1.032341	0.031008	2.228418	10.848844	13.528716	7.054627	22.161065	-9.048846	19.619403	-74.418127	54.750550	61.367876	-18.181491	69.796183	-24.999999	12.867002	-5.471992	-20.046551	-20.791304	-44.688688	0.915851	62.967125	-36.124495	-1.851892	70.495626	19.834009	-0.045222	-24.998533	
2.7500	1.569944	4.943047	13.447418	-0.125380	1.032305	0.031183	2.204762	10.812154	13.397687	7.064237	22.044642	-8.994206	20.168013	-74.284858	54.795068	61.911141	-18.093530	69.630850	-24.999999	13.069802	-5.565763	-20.432001	-20.735499	-44.788235	1.087665	63.042855	-35.874268	-1.648834	70.690871	19.593688	0.284304	-24.997371	
2.7600	1.540804	5.024887	13.425429	-0.125343	1.032302	0.031365	2.179533	10.797577	13.316281	7.067789	22.000104	-8.965273	20.686295	-74.169262	54.852517	62.503920	-18.016071	69.350062	-24.999999	13.282184	-5.662751	-20.828789	-20.669618	-44.873112	1.267931	63.126561	-35.606539	-1.446731	70.900522	19.322422	0.659920	-24.995293	
2.7700	1.525554	5.098667	13.388462	-0.125274	1.032361	0.031557	2.144089	10.808866	13.304301	7.053323	22.071804	-8.973977	21.138978	-74.104625	54.894919	63.142159	-17.978037	68.804403	-24.999998	13.492968	-5.776328	-21.209369	-20.572052	-44.921193	1.449095	63.207764	-35.328210	-1.246339	71.093858	18.999431	1.118401	-24.991563	
2.7800	1.518193	5.168191	13.342633	-0.125178	1.032457	0.031757	2.099191	10.838011	13.345251	7.022685	22.234827	-9.011717	21.553533	-74.076876	54.912427	63.833118	-17.936719	67.954894	-24.999996	13.704458	-5.903080	-21.579592	-20.448099	-44.937537	1.632689	63.291485	-35.035470	-1.042210	71.272534	18.622851	1.678682	-24.984902	
2.7900	1.513449	5.233844	13.305364	-0.125061	1.032602	0.031964	2.048175	10.869027	13.424801	6.973220	22.457288	-9.068742	21.947013	-74.070568	54.892938	64.552765	-17.851788	66.773582	-24.999993	13.914858	-6.042196	-21.936147	-20.298493	-44.921656	1.817129	63.377335	-34.732576	-0.837658	71.418044	18.200459	2.349027	-24.972914	
2.8000	1.497696	5.311224	13.278771	-0.124940	1.032741	0.032186	1.992560	10.882102	13.479931	6.917889	22.652992	-9.113928	22.433189	-74.050366	54.813953	65.368791	-17.567562	65.094283	-24.999988	14.141814	-6.186821	-22.321692	-20.144129	-44.908726	2.015917	63.483411	-34.392560	-0.607794	71.551308	17.711612	3.220046	-24.951596	
2.8100	1.479942	5.397013	13.263318	-0.124815	1.032892	0.032415	1.933880	10.872812	13.517747	6.851851	22.824829	-9.149116	23.004932	-74.013506	54.665005	66.242545	-17.063313	62.956629	-24.999978	14.377202	-6.345496	-22.722037	-19.978255	-44.899987	2.222524	63.611637	-34.009194	-0.358095	71.654677	17.184503	4.259476	-24.912975	
2.8200	1.453580	5.482962	13.255334	-0.124672	1.033010	0.032650	1.874304	10.849291	13.547709	6.778650	22.982801	-9.179149	23.644552	-73.953292	54.424427	67.176714	-16.210043	60.277850	-24.999961	14.606110	-6.505619	-23.110997	-19.813178	-44.894483	2.423282	63.785347	-33.589638	-0.095137	71.741756	16.669952	5.453340	-24.845005	
2.8300	1.424725	5.558866	13.252055	-0.124511	1.033103	0.032872	1.826940	10.813003	13.608595	6.693582	23.143256	-9.217157	24.278866	-73.849118	54.115416	68.079817	-15.137119	57.394476	-24.999930	14.815952	-6.669653	-23.461312	-19.640051	-44.875521	2.607553	64.002203	-33.147312	0.154719	71.800654	16.226797	6.656294	-24.719869	
2.8400	1.390642	5.626115	13.253479	-0.124334	1.033146	0.033074	1.798316	10.763659	13.711425	6.596905	23.304439	-9.265963	24.887180	-73.697434	53.746345	68.944265	-13.880946	54.320409	-24.999875	15.009190	-6.833195	-23.774767	-19.459030	-44.834530	2.777116	64.255726	-32.687562	0.386659	71.838840	15.842032	7.868853	-24.505156	
2.8500	1.367583	5.681427	13.256153	-0.124156	1.033156	0.033239	1.804244	10.704019	13.888424	6.489238	23.469956	-9.334787	25.420182	-73.489290	53.333132	69.719380	-12.657227	51.260192	-24.999776	15.184299	-7.012347	-24.051234	-19.258985	-44.779882	2.931188	64.532865	-32.196344	0.599797	71.848960	15.501489	9.042073	-24.096264	
2.8600	1.346342	5.724814	13.258864	-0.123976	1.033118	0.033370	1.840788	10.627610	14.132817	6.365849	23.638220	-9.421050	25.884402	-73.231287	52.850857	70.428883	-11.302838	48.034731	-24.999599	15.345438	-7.199036	-24.295785	-19.043905	-44.704083	3.072677	64.827179	-31.679089	0.802474	71.838452	15.169278	10.234385	-23.449599	
2.8700	1.328925	5.756939	13.257292	-0.123788	1.033030	0.033452	1.913390	10.533044	14.448100	6.228246	23.801116	-9.524144	26.246098	-72.895447	52.329126	71.007759	-10.017660	44.946895	-24.999283	15.487862	-7.387354	-24.496485	-18.813750	-44.594015	3.197330	65.131816	-31.132589	0.973170	71.789693	14.855998	11.345292	-22.598253	
2.8800	1.310322	5.785816	13.243112	-0.123589	1.032883	0.033491	2.007581	10.411690	14.807755	6.070106	23.957095	-9.635837	26.541631	-72.488298	51.780139	71.492997	-8.850220	41.859579	-24.998715	15.627248	-7.571362	-24.674617	-18.563606	-44.428604	3.318604	65.419511	-30.556830	1.122084	71.688523	14.507958	12.437383	-21.625877	
2.8900	1.295340	5.814471	13.226302	-0.123383	1.032691	0.033482	2.128703	10.263661	15.217749	5.892734	24.102236	-9.757260	26.764179	-72.003946	51.253767	71.829907	-8.027319	39.007713	-24.997698	15.764414	-7.757662	-24.832280	-18.287995	-44.209554	3.437170	65.685301	-29.954488	1.230234	71.503844	14.151393	13.449325	-20.613364	
2.9000	1.276393	5.841021	13.212356	-0.123175	1.032447	0.033430	2.272381	10.083371	15.682507	5.687026	24.250069	-9.891544	26.928091	-71.466740	50.757902	72.036038	-7.474605	36.248912	-24.995877	15.907934	-7.938739	-24.979690	-17.985430	-43.919413	3.560391	65.907128	-29.343309	1.302596	71.230772	13.755468	14.454321	-19.582388	
2.9100	1.253076	5.867326	13.213201	-0.122966	1.032164	0.033331	2.445070	9.867367	16.205475	5.453455	24.390321	-10.037903	27.029460	-70.866011	50.344490	72.043210	-7.328942	33.872937	-24.992613	16.057205	-8.120360	-25.119115	-17.655230	-43.568576	3.687189	66.089889	-28.731725	1.323391	70.849987	13.351049	15.379359	-18.606953	
2.9200	1.226218	5.891166	13.219435	-0.122755	1.031835	0.033193	2.646530	9.615499	16.786603	5.191459	24.524840	-10.196489	27.076005	-70.203250	50.008358	71.854759	-7.526014	31.816918	-24.986774	16.212339	-8.302114	-25.253809	-17.301091	-43.164815	3.817847	66.236413	-28.110734	1.303688	70.366738	12.928706	16.251334	-17.665709	
